<svg fill="none" height="24" viewBox="0 0 132 24" width="132" xmlns="http://www.w3.org/2000/svg">
<path d="M71.894 12.7574C71.498 12.2416 71.012 11.7857 70.45 11.4038C69.884 11.0199 69.24 10.6939 68.536 10.438L67.334 10.0181C66.344 9.6862 65.562 9.34829 65.01 9.01238C64.408 8.64647 64.112 8.18859 64.132 7.65472C64.15 7.08487 64.354 6.65498 64.742 6.38105C65.11 6.11911 65.614 5.98715 66.242 5.98715C66.996 5.98715 67.62 6.06513 68.096 6.21909C68.57 6.37305 68.966 6.555 69.276 6.76095C69.378 6.83493 69.532 6.89891 69.738 6.9589C69.95 7.01888 70.138 7.05087 70.3 7.05087C70.74 7.05087 71.144 6.9509 71.498 6.75295C71.842 6.561 72.082 6.24108 72.232 5.7752C72.396 5.23334 72.334 4.71747 72.038 4.2016C71.738 3.67573 71.312 3.25984 70.772 2.96591C70.54 2.84994 70.29 2.72997 70.034 2.614C69.776 2.49603 69.466 2.39206 69.108 2.30408C68.748 2.2161 68.326 2.14212 67.852 2.08614C67.38 2.02815 66.82 2.00016 66.194 2.00016C64.55 2.00016 63.148 2.35607 62.03 3.05789C60.918 3.75371 60.148 4.75746 59.738 6.04113C59.532 6.66297 59.432 7.3308 59.44 8.03063C59.448 8.72645 59.592 9.41227 59.868 10.0701C60.144 10.7279 60.564 11.3478 61.12 11.9116C61.672 12.4755 62.412 12.9554 63.32 13.3393C63.466 13.4053 63.644 13.4752 63.866 13.5592C64.086 13.6412 64.292 13.7152 64.486 13.7792C64.998 13.9451 65.482 14.1171 65.922 14.289C66.368 14.463 66.768 14.6449 67.112 14.8289C67.468 15.0209 67.746 15.2368 67.942 15.4667C68.152 15.7167 68.258 15.9826 68.258 16.2585C68.24 16.8724 68.012 17.3223 67.582 17.6062C67.176 17.8721 66.602 18.0081 65.88 18.0081C65.03 18.0081 64.368 17.9441 63.91 17.8161C63.448 17.6862 63.068 17.5262 62.776 17.3343C62.556 17.2083 62.312 17.0683 62.058 16.9204C61.86 16.8044 61.59 16.7464 61.258 16.7464C61.22 16.7464 61.182 16.7464 61.142 16.7484C60.842 16.7644 60.534 16.8404 60.23 16.9784C59.938 17.1103 59.708 17.3023 59.55 17.5502C59.386 17.8061 59.278 18.0761 59.234 18.354C59.19 18.6299 59.2 18.8979 59.266 19.1518C59.334 19.4097 59.446 19.6617 59.598 19.8996C59.75 20.1375 59.936 20.3515 60.152 20.5374C60.792 21.0393 61.62 21.4132 62.604 21.6452C63.602 21.8791 64.654 21.9991 65.732 21.9991C67.926 21.9991 69.678 21.5212 70.942 20.5794C72.192 19.6477 72.882 18.316 72.992 16.6204C73.04 15.8566 72.968 15.1428 72.778 14.501C72.584 13.8571 72.288 13.2713 71.894 12.7574Z" fill="#FF4438"></path>
<path d="M88.094 12.7574C87.698 12.2416 87.212 11.7857 86.65 11.4038C86.084 11.0199 85.44 10.6939 84.736 10.438L83.534 10.0181C82.544 9.6862 81.762 9.34829 81.21 9.01238C80.608 8.64647 80.312 8.18859 80.332 7.65472C80.35 7.08487 80.554 6.65498 80.942 6.38105C81.31 6.11911 81.814 5.98715 82.442 5.98715C83.196 5.98715 83.82 6.06513 84.296 6.21909C84.77 6.37305 85.166 6.555 85.476 6.76095C85.578 6.83493 85.732 6.89891 85.938 6.9589C86.15 7.01888 86.338 7.05087 86.5 7.05087C86.94 7.05087 87.344 6.9509 87.698 6.75295C88.042 6.561 88.282 6.24108 88.432 5.7752C88.596 5.23334 88.534 4.71747 88.238 4.2016C87.938 3.67573 87.512 3.25984 86.972 2.96591C86.74 2.84994 86.49 2.72997 86.234 2.614C85.976 2.49603 85.666 2.39206 85.308 2.30408C84.948 2.2161 84.526 2.14212 84.052 2.08614C83.58 2.02815 83.02 2.00016 82.394 2.00016C80.75 2.00016 79.348 2.35607 78.23 3.05789C77.118 3.75371 76.348 4.75746 75.938 6.04113C75.732 6.66297 75.632 7.3308 75.64 8.03063C75.648 8.72645 75.792 9.41227 76.068 10.0701C76.344 10.7279 76.764 11.3478 77.32 11.9116C77.872 12.4755 78.612 12.9554 79.52 13.3393C79.666 13.4053 79.844 13.4752 80.066 13.5592C80.286 13.6412 80.492 13.7152 80.686 13.7792C81.198 13.9451 81.682 14.1171 82.122 14.289C82.568 14.463 82.968 14.6449 83.312 14.8289C83.668 15.0209 83.946 15.2368 84.142 15.4667C84.352 15.7167 84.458 15.9826 84.458 16.2585C84.44 16.8724 84.212 17.3223 83.782 17.6062C83.376 17.8721 82.802 18.0081 82.08 18.0081C81.23 18.0081 80.568 17.9441 80.11 17.8161C79.648 17.6862 79.268 17.5262 78.976 17.3343C78.756 17.2083 78.512 17.0683 78.258 16.9204C78.06 16.8044 77.79 16.7464 77.458 16.7464C77.42 16.7464 77.382 16.7464 77.342 16.7484C77.042 16.7644 76.734 16.8404 76.43 16.9784C76.138 17.1103 75.908 17.3023 75.75 17.5502C75.586 17.8061 75.478 18.0761 75.434 18.354C75.39 18.6299 75.4 18.8979 75.466 19.1518C75.534 19.4097 75.646 19.6617 75.798 19.8996C75.95 20.1375 76.136 20.3515 76.352 20.5374C76.992 21.0393 77.82 21.4132 78.804 21.6452C79.802 21.8791 80.854 21.9991 81.932 21.9991C84.126 21.9991 85.878 21.5212 87.142 20.5794C88.392 19.6477 89.082 18.316 89.192 16.6204C89.24 15.8566 89.168 15.1428 88.978 14.501C88.784 13.8571 88.488 13.2713 88.094 12.7574Z" fill="#FF4438"></path>
<path d="M57.012 18.9092L50.112 3.31009C49.76 2.51413 48.97 2.00016 48.1 2.00016C47.23 2.00016 46.44 2.51413 46.088 3.31009L39.188 18.9092C38.696 20.0212 39.198 21.3191 40.31 21.8111C41.42 22.3031 42.72 21.8011 43.212 20.6891L44.224 18.3993H51.974L52.986 20.6891C53.35 21.5111 54.154 21.9991 54.998 21.9991C55.296 21.9991 55.598 21.9391 55.886 21.8111C57 21.3191 57.502 20.0192 57.012 18.9092ZM46.172 13.9995L48.1 9.63774L50.028 13.9995H46.172Z" fill="#FF4438"></path>
<path d="M127.2 21.9991C125.984 21.9991 125 21.0151 125 19.7992V13.4375L121.864 19.6492C121.49 20.3912 120.73 20.8571 119.9 20.8571C119.07 20.8571 118.31 20.3892 117.936 19.6492L114.8 13.4375V19.7992C114.8 21.0151 113.816 21.9991 112.6 21.9991C111.384 21.9991 110.4 21.0151 110.4 19.7992V4.20004C110.4 3.18209 111.1 2.29614 112.09 2.06015C113.08 1.82417 114.104 2.29814 114.564 3.20809L119.9 13.7755L125.236 3.20809C125.696 2.29814 126.72 1.82417 127.71 2.06015C128.7 2.29614 129.4 3.18209 129.4 4.20004V19.7992C129.4 21.0151 128.416 21.9991 127.2 21.9991Z" fill="#FF4438"></path>
<path d="M35 21.9991H25.6C24.384 21.9991 23.4 21.0151 23.4 19.7992V4.20004C23.4 2.98411 24.384 2.00016 25.6 2.00016C26.816 2.00016 27.8 2.98411 27.8 4.20004V17.5993H35C36.216 17.5993 37.2 18.5833 37.2 19.7992C37.2 21.0151 36.216 21.9991 35 21.9991Z" fill="#FF4438"></path>
<path d="M99.8 21.9991C95.278 21.9991 91.6 18.3213 91.6 13.7995V4.20004C91.6 2.98411 92.584 2.00016 93.8 2.00016C95.016 2.00016 96 2.98411 96 4.20004V13.7995C96 15.8954 97.704 17.5993 99.8 17.5993C101.896 17.5993 103.6 15.8954 103.6 13.7995V4.37003C103.6 3.1541 104.584 2.17015 105.8 2.17015C107.016 2.17015 108 3.1541 108 4.37003V13.7995C108 18.3213 104.322 21.9991 99.8 21.9991Z" fill="#FF4438"></path>
<path d="M12 2.00016C6.47697 2.00016 2 6.47689 2 11.9996C2 17.5223 6.47697 21.9991 12 21.9991C15.7482 21.9991 19.0057 19.935 20.7166 16.8995C21.3131 15.8411 20.9387 14.4995 19.8802 13.903C18.8217 13.3064 17.48 13.6809 16.8834 14.7393C15.9183 16.4516 14.0918 17.5993 12 17.5993C11.4603 17.5993 10.9385 17.523 10.4447 17.3806C10.2716 17.3306 10.0855 17.3517 9.9267 17.437C9.28874 17.7794 8.58833 17.9629 7.882 17.9893C7.722 17.9953 7.622 17.8213 7.704 17.6853C7.92028 17.3311 8.09155 16.9462 8.21006 16.5388C8.27053 16.331 8.19323 16.1123 8.04017 15.9593C7.02677 14.946 6.4 13.546 6.4 11.9996C6.4 8.90681 8.90703 6.39992 12 6.39992C14.0918 6.39992 15.9183 7.54765 16.8834 9.25995C17.48 10.3184 18.8217 10.6928 19.8802 10.0963C20.9387 9.49974 21.3131 8.15813 20.7166 7.0997C19.0057 4.06426 15.7482 2.00016 12 2.00016Z" fill="#FF4438"></path>
</svg>